<?xml version="1.0" encoding="utf-8"?>
<!-- Generator: Adobe Illustrator 27.5.0, SVG Export Plug-In . SVG Version: 6.00 Build 0)  -->
<svg version="1.1" id="BACKGROUND" xmlns="http://www.w3.org/2000/svg" xmlns:xlink="http://www.w3.org/1999/xlink" x="0px" y="0px"
	 viewBox="0 0 750 500" style="enable-background:new 0 0 750 500;" xml:space="preserve">
<rect style="fill:#437761;" width="750" height="500"/>
<g>
	<defs>
		<rect id="SVGID_1_" width="750" height="500"/>
	</defs>
	<clipPath id="SVGID_00000048492726397044487580000004111717315010421897_">
		<use xlink:href="#SVGID_1_"  style="overflow:visible;"/>
	</clipPath>
	<g style="clip-path:url(#SVGID_00000048492726397044487580000004111717315010421897_);">
		
			<linearGradient id="SVGID_00000024717731853083279580000000596540237655014559_" gradientUnits="userSpaceOnUse" x1="-153.2791" y1="337.4597" x2="470.5229" y2="337.4597">
			<stop  offset="0" style="stop-color:#396653"/>
			<stop  offset="1" style="stop-color:#437761"/>
		</linearGradient>
		<path style="fill:url(#SVGID_00000024717731853083279580000000596540237655014559_);" d="M453.878,122.906l-509.81,509.81
			c-22.193,22.193-58.509,22.193-80.702,0h0c-22.193-22.193-22.193-58.509,0-80.702l509.81-509.81
			c22.193-22.193,58.509-22.193,80.702,0l0,0C476.071,64.397,476.071,100.713,453.878,122.906z"/>
		
			<linearGradient id="SVGID_00000142876133556296376900000009479793236865817757_" gradientUnits="userSpaceOnUse" x1="48.488" y1="-98.401" x2="672.2901" y2="-98.401">
			<stop  offset="0" style="stop-color:#437761"/>
			<stop  offset="0.0731" style="stop-color:#41745F"/>
			<stop  offset="0.5101" style="stop-color:#3B6A56"/>
			<stop  offset="1" style="stop-color:#396653"/>
		</linearGradient>
		<path style="fill:url(#SVGID_00000142876133556296376900000009479793236865817757_);" d="M655.645-312.955l-509.81,509.81
			c-22.193,22.193-58.509,22.193-80.702,0l0,0c-22.193-22.193-22.193-58.509,0-80.702l509.81-509.81
			c22.193-22.193,58.509-22.193,80.702,0l0,0C677.838-371.464,677.838-335.148,655.645-312.955z"/>
		
			<linearGradient id="SVGID_00000032640277909462863500000016514793146039552950_" gradientUnits="userSpaceOnUse" x1="292.148" y1="176.1498" x2="915.95" y2="176.1498">
			<stop  offset="0" style="stop-color:#396653"/>
			<stop  offset="1" style="stop-color:#437761"/>
		</linearGradient>
		<path style="fill:url(#SVGID_00000032640277909462863500000016514793146039552950_);" d="M899.305-38.404l-509.81,509.81
			c-22.193,22.193-58.509,22.193-80.702,0l0,0c-22.193-22.193-22.193-58.509,0-80.702l509.81-509.81
			c22.193-22.193,58.509-22.193,80.702,0l0,0C921.498-96.913,921.498-60.597,899.305-38.404z"/>
		
			<linearGradient id="SVGID_00000026128763165839700810000014461508397916483252_" gradientUnits="userSpaceOnUse" x1="874.6934" y1="812.0849" x2="348.9721" y2="190.429">
			<stop  offset="0" style="stop-color:#6EC38C"/>
			<stop  offset="1" style="stop-color:#437761"/>
		</linearGradient>
		<circle style="fill:url(#SVGID_00000026128763165839700810000014461508397916483252_);" cx="611.128" cy="500.423" r="341.032"/>
		<g>
			<g>
				
					<linearGradient id="SVGID_00000137116007280467790120000000984805653478025890_" gradientUnits="userSpaceOnUse" x1="233.9604" y1="258" x2="516.0396" y2="258">
					<stop  offset="0" style="stop-color:#396653"/>
					<stop  offset="1" style="stop-color:#437761"/>
				</linearGradient>
				<polygon style="fill:url(#SVGID_00000137116007280467790120000000984805653478025890_);" points="504.25,255.6 503.75,255.6 
					432.25,255.6 431.75,255.6 360.25,255.6 359.75,255.6 288.25,255.6 287.75,255.6 233.96,255.6 238.761,260.4 287.75,260.4 
					288.25,260.4 359.75,260.4 360.25,260.4 431.75,260.4 432.25,260.4 503.75,260.4 504.25,260.4 511.239,260.4 516.04,255.6 				
					"/>
				
					<linearGradient id="SVGID_00000057851563417272123440000002034268690372325817_" gradientUnits="userSpaceOnUse" x1="229.9609" y1="246" x2="520.0391" y2="246">
					<stop  offset="0" style="stop-color:#396653"/>
					<stop  offset="1" style="stop-color:#437761"/>
				</linearGradient>
				<polygon style="fill:url(#SVGID_00000057851563417272123440000002034268690372325817_);" points="504.25,243.6 503.75,243.6 
					432.25,243.6 431.75,243.6 360.25,243.6 359.75,243.6 288.25,243.6 287.75,243.6 234.761,243.6 229.961,248.4 287.75,248.4 
					288.25,248.4 359.75,248.4 360.25,248.4 431.75,248.4 432.25,248.4 503.75,248.4 504.25,248.4 520.039,248.4 515.239,243.6 				
					"/>
				
					<linearGradient id="SVGID_00000089536531286794880880000000189202865363108275_" gradientUnits="userSpaceOnUse" x1="241.9609" y1="234" x2="508.0391" y2="234">
					<stop  offset="0" style="stop-color:#396653"/>
					<stop  offset="1" style="stop-color:#437761"/>
				</linearGradient>
				<polygon style="fill:url(#SVGID_00000089536531286794880880000000189202865363108275_);" points="503.239,231.6 432.25,231.6 
					431.75,231.6 360.25,231.6 359.75,231.6 288.25,231.6 287.75,231.6 246.761,231.6 241.961,236.4 287.75,236.4 288.25,236.4 
					359.75,236.4 360.25,236.4 431.75,236.4 432.25,236.4 503.75,236.4 504.25,236.4 508.039,236.4 				"/>
				
					<linearGradient id="SVGID_00000102517354810713596990000016259795963354102201_" gradientUnits="userSpaceOnUse" x1="257.9604" y1="282" x2="492.0396" y2="282">
					<stop  offset="0" style="stop-color:#396653"/>
					<stop  offset="1" style="stop-color:#437761"/>
				</linearGradient>
				<polygon style="fill:url(#SVGID_00000102517354810713596990000016259795963354102201_);" points="492.04,279.6 432.25,279.6 
					431.75,279.6 360.25,279.6 359.75,279.6 288.25,279.6 287.75,279.6 257.96,279.6 262.761,284.4 287.75,284.4 288.25,284.4 
					359.75,284.4 360.25,284.4 431.75,284.4 432.25,284.4 487.239,284.4 				"/>
				
					<linearGradient id="SVGID_00000162321532581755846000000003215589442422022566_" gradientUnits="userSpaceOnUse" x1="245.9604" y1="270" x2="504.0396" y2="270">
					<stop  offset="0" style="stop-color:#396653"/>
					<stop  offset="1" style="stop-color:#437761"/>
				</linearGradient>
				<polygon style="fill:url(#SVGID_00000162321532581755846000000003215589442422022566_);" points="503.75,267.6 432.25,267.6 
					431.75,267.6 360.25,267.6 359.75,267.6 288.25,267.6 287.75,267.6 245.96,267.6 250.761,272.4 287.75,272.4 288.25,272.4 
					359.75,272.4 360.25,272.4 431.75,272.4 432.25,272.4 499.239,272.4 504.04,267.6 				"/>
				
					<linearGradient id="SVGID_00000132070102974970021670000006836401287180177323_" gradientUnits="userSpaceOnUse" x1="305.9604" y1="330" x2="444.0396" y2="330">
					<stop  offset="0" style="stop-color:#396653"/>
					<stop  offset="1" style="stop-color:#437761"/>
				</linearGradient>
				<polygon style="fill:url(#SVGID_00000132070102974970021670000006836401287180177323_);" points="432.25,327.6 431.75,327.6 
					360.25,327.6 359.75,327.6 305.96,327.6 310.761,332.4 359.75,332.4 360.25,332.4 431.75,332.4 432.25,332.4 439.239,332.4 
					444.04,327.6 				"/>
				
					<linearGradient id="SVGID_00000062910378508735859120000001445594830533511581_" gradientUnits="userSpaceOnUse" x1="293.9604" y1="318" x2="456.0396" y2="318">
					<stop  offset="0" style="stop-color:#396653"/>
					<stop  offset="1" style="stop-color:#437761"/>
				</linearGradient>
				<polygon style="fill:url(#SVGID_00000062910378508735859120000001445594830533511581_);" points="431.75,315.6 360.25,315.6 
					359.75,315.6 293.96,315.6 298.761,320.4 359.75,320.4 360.25,320.4 431.75,320.4 432.25,320.4 451.239,320.4 456.04,315.6 
					432.25,315.6 				"/>
				
					<linearGradient id="SVGID_00000134245620044475084300000006315549957303677624_" gradientUnits="userSpaceOnUse" x1="361.9609" y1="114" x2="388.0391" y2="114">
					<stop  offset="0" style="stop-color:#396653"/>
					<stop  offset="1" style="stop-color:#437761"/>
				</linearGradient>
				<polygon style="fill:url(#SVGID_00000134245620044475084300000006315549957303677624_);" points="383.239,111.6 366.761,111.6 
					361.961,116.4 388.039,116.4 				"/>
				
					<linearGradient id="SVGID_00000069363100268406968380000013825822034396620223_" gradientUnits="userSpaceOnUse" x1="373.9609" y1="103.8803" x2="376.0391" y2="103.8803">
					<stop  offset="0" style="stop-color:#396653"/>
					<stop  offset="1" style="stop-color:#437761"/>
				</linearGradient>
				<polygon style="fill:url(#SVGID_00000069363100268406968380000013825822034396620223_);" points="373.961,104.4 376.039,104.4 
					375,103.361 				"/>
				
					<linearGradient id="SVGID_00000104666381662389864450000009106891673882277281_" gradientUnits="userSpaceOnUse" x1="313.9609" y1="162" x2="436.0391" y2="162">
					<stop  offset="0" style="stop-color:#396653"/>
					<stop  offset="1" style="stop-color:#437761"/>
				</linearGradient>
				<polygon style="fill:url(#SVGID_00000104666381662389864450000009106891673882277281_);" points="359.75,159.6 318.761,159.6 
					313.961,164.4 359.75,164.4 360.25,164.4 431.75,164.4 432.25,164.4 436.039,164.4 431.239,159.6 360.25,159.6 				"/>
				
					<linearGradient id="SVGID_00000066514817371583049270000017985545583564017819_" gradientUnits="userSpaceOnUse" x1="365.9604" y1="390" x2="384.0396" y2="390">
					<stop  offset="0" style="stop-color:#396653"/>
					<stop  offset="1" style="stop-color:#437761"/>
				</linearGradient>
				<polygon style="fill:url(#SVGID_00000066514817371583049270000017985545583564017819_);" points="365.96,387.6 370.761,392.4 
					379.239,392.4 384.04,387.6 				"/>
				
					<linearGradient id="SVGID_00000067235823050980762570000014009012909049633668_" gradientUnits="userSpaceOnUse" x1="353.9604" y1="378" x2="396.0396" y2="378">
					<stop  offset="0" style="stop-color:#396653"/>
					<stop  offset="1" style="stop-color:#437761"/>
				</linearGradient>
				<polygon style="fill:url(#SVGID_00000067235823050980762570000014009012909049633668_);" points="359.75,375.6 353.96,375.6 
					358.761,380.4 359.75,380.4 360.25,380.4 391.239,380.4 396.04,375.6 360.25,375.6 				"/>
				
					<linearGradient id="SVGID_00000138552271354750713370000017021758303491059334_" gradientUnits="userSpaceOnUse" x1="337.9609" y1="138" x2="412.0391" y2="138">
					<stop  offset="0" style="stop-color:#396653"/>
					<stop  offset="1" style="stop-color:#437761"/>
				</linearGradient>
				<polygon style="fill:url(#SVGID_00000138552271354750713370000017021758303491059334_);" points="360.25,140.4 412.039,140.4 
					407.239,135.6 360.25,135.6 359.75,135.6 342.761,135.6 337.961,140.4 359.75,140.4 				"/>
				
					<linearGradient id="SVGID_00000141432698605340421990000002351349654405408696_" gradientUnits="userSpaceOnUse" x1="349.9609" y1="126" x2="400.0391" y2="126">
					<stop  offset="0" style="stop-color:#396653"/>
					<stop  offset="1" style="stop-color:#437761"/>
				</linearGradient>
				<polygon style="fill:url(#SVGID_00000141432698605340421990000002351349654405408696_);" points="360.25,128.4 400.039,128.4 
					395.239,123.6 360.25,123.6 359.75,123.6 354.761,123.6 349.961,128.4 359.75,128.4 				"/>
				
					<linearGradient id="SVGID_00000044161692941800809740000018346080509092971442_" gradientUnits="userSpaceOnUse" x1="289.9609" y1="186" x2="460.0391" y2="186">
					<stop  offset="0" style="stop-color:#396653"/>
					<stop  offset="1" style="stop-color:#437761"/>
				</linearGradient>
				<polygon style="fill:url(#SVGID_00000044161692941800809740000018346080509092971442_);" points="360.25,188.4 431.75,188.4 
					432.25,188.4 460.039,188.4 455.239,183.6 432.25,183.6 431.75,183.6 360.25,183.6 359.75,183.6 294.761,183.6 289.961,188.4 
					359.75,188.4 				"/>
				
					<linearGradient id="SVGID_00000115475437867076246130000017020429545930316464_" gradientUnits="userSpaceOnUse" x1="301.9609" y1="174" x2="448.0391" y2="174">
					<stop  offset="0" style="stop-color:#396653"/>
					<stop  offset="1" style="stop-color:#437761"/>
				</linearGradient>
				<polygon style="fill:url(#SVGID_00000115475437867076246130000017020429545930316464_);" points="360.25,176.4 431.75,176.4 
					432.25,176.4 448.039,176.4 443.239,171.6 432.25,171.6 431.75,171.6 360.25,171.6 359.75,171.6 306.761,171.6 301.961,176.4 
					359.75,176.4 				"/>
				
					<linearGradient id="SVGID_00000075841594371587685420000017816192591839779471_" gradientUnits="userSpaceOnUse" x1="325.9609" y1="150" x2="424.0391" y2="150">
					<stop  offset="0" style="stop-color:#396653"/>
					<stop  offset="1" style="stop-color:#437761"/>
				</linearGradient>
				<polygon style="fill:url(#SVGID_00000075841594371587685420000017816192591839779471_);" points="325.961,152.4 359.75,152.4 
					360.25,152.4 424.039,152.4 419.239,147.6 360.25,147.6 359.75,147.6 330.761,147.6 				"/>
				
					<linearGradient id="SVGID_00000112614817804031837230000002397735803101000880_" gradientUnits="userSpaceOnUse" x1="329.9604" y1="354" x2="420.0396" y2="354">
					<stop  offset="0" style="stop-color:#396653"/>
					<stop  offset="1" style="stop-color:#437761"/>
				</linearGradient>
				<polygon style="fill:url(#SVGID_00000112614817804031837230000002397735803101000880_);" points="360.25,356.4 415.239,356.4 
					420.04,351.6 360.25,351.6 359.75,351.6 329.96,351.6 334.761,356.4 359.75,356.4 				"/>
				
					<linearGradient id="SVGID_00000115490867226296259380000004113699114506487988_" gradientUnits="userSpaceOnUse" x1="317.9604" y1="342" x2="432.0396" y2="342">
					<stop  offset="0" style="stop-color:#396653"/>
					<stop  offset="1" style="stop-color:#437761"/>
				</linearGradient>
				<polygon style="fill:url(#SVGID_00000115490867226296259380000004113699114506487988_);" points="360.25,344.4 427.239,344.4 
					432.04,339.6 431.75,339.6 360.25,339.6 359.75,339.6 317.96,339.6 322.761,344.4 359.75,344.4 				"/>
				
					<linearGradient id="SVGID_00000074410901668967486020000008154627330798836368_" gradientUnits="userSpaceOnUse" x1="341.9604" y1="366" x2="408.0396" y2="366">
					<stop  offset="0" style="stop-color:#396653"/>
					<stop  offset="1" style="stop-color:#437761"/>
				</linearGradient>
				<polygon style="fill:url(#SVGID_00000074410901668967486020000008154627330798836368_);" points="346.761,368.4 359.75,368.4 
					360.25,368.4 403.239,368.4 408.04,363.6 360.25,363.6 359.75,363.6 341.96,363.6 				"/>
				
					<linearGradient id="SVGID_00000081638144356602902430000015317279521845917112_" gradientUnits="userSpaceOnUse" x1="265.9609" y1="210" x2="484.0391" y2="210">
					<stop  offset="0" style="stop-color:#396653"/>
					<stop  offset="1" style="stop-color:#437761"/>
				</linearGradient>
				<polygon style="fill:url(#SVGID_00000081638144356602902430000015317279521845917112_);" points="287.75,212.4 288.25,212.4 
					359.75,212.4 360.25,212.4 431.75,212.4 432.25,212.4 484.039,212.4 479.239,207.6 432.25,207.6 431.75,207.6 360.25,207.6 
					359.75,207.6 288.25,207.6 287.75,207.6 270.761,207.6 265.961,212.4 				"/>
				
					<linearGradient id="SVGID_00000008843400980518902050000000515853758372259471_" gradientUnits="userSpaceOnUse" x1="277.9609" y1="198" x2="472.0391" y2="198">
					<stop  offset="0" style="stop-color:#396653"/>
					<stop  offset="1" style="stop-color:#437761"/>
				</linearGradient>
				<polygon style="fill:url(#SVGID_00000008843400980518902050000000515853758372259471_);" points="287.75,200.4 288.25,200.4 
					359.75,200.4 360.25,200.4 431.75,200.4 432.25,200.4 472.039,200.4 467.239,195.6 432.25,195.6 431.75,195.6 360.25,195.6 
					359.75,195.6 288.25,195.6 287.75,195.6 282.761,195.6 277.961,200.4 				"/>
				
					<linearGradient id="SVGID_00000166648136974652058030000016155079362013011638_" gradientUnits="userSpaceOnUse" x1="253.9609" y1="222" x2="496.0391" y2="222">
					<stop  offset="0" style="stop-color:#396653"/>
					<stop  offset="1" style="stop-color:#437761"/>
				</linearGradient>
				<polygon style="fill:url(#SVGID_00000166648136974652058030000016155079362013011638_);" points="253.961,224.4 287.75,224.4 
					288.25,224.4 359.75,224.4 360.25,224.4 431.75,224.4 432.25,224.4 496.039,224.4 491.239,219.6 432.25,219.6 431.75,219.6 
					360.25,219.6 359.75,219.6 288.25,219.6 287.75,219.6 258.761,219.6 				"/>
				
					<linearGradient id="SVGID_00000082326240398717430240000008914790291220410528_" gradientUnits="userSpaceOnUse" x1="281.9604" y1="306" x2="468.0396" y2="306">
					<stop  offset="0" style="stop-color:#396653"/>
					<stop  offset="1" style="stop-color:#437761"/>
				</linearGradient>
				<polygon style="fill:url(#SVGID_00000082326240398717430240000008914790291220410528_);" points="287.75,308.4 288.25,308.4 
					359.75,308.4 360.25,308.4 431.75,308.4 432.25,308.4 463.239,308.4 468.04,303.6 432.25,303.6 431.75,303.6 360.25,303.6 
					359.75,303.6 288.25,303.6 287.75,303.6 281.96,303.6 286.761,308.4 				"/>
				
					<linearGradient id="SVGID_00000062181045409470877080000007583478251086565265_" gradientUnits="userSpaceOnUse" x1="269.9604" y1="294" x2="480.0396" y2="294">
					<stop  offset="0" style="stop-color:#396653"/>
					<stop  offset="1" style="stop-color:#437761"/>
				</linearGradient>
				<polygon style="fill:url(#SVGID_00000062181045409470877080000007583478251086565265_);" points="274.761,296.4 287.75,296.4 
					288.25,296.4 359.75,296.4 360.25,296.4 431.75,296.4 432.25,296.4 475.239,296.4 480.04,291.6 432.25,291.6 431.75,291.6 
					360.25,291.6 359.75,291.6 288.25,291.6 287.75,291.6 269.96,291.6 				"/>
			</g>
			
				<linearGradient id="SVGID_00000070085826013425140020000012335070564081465475_" gradientUnits="userSpaceOnUse" x1="252.4947" y1="250" x2="545.7732" y2="250">
				<stop  offset="0" style="stop-color:#6EC38C"/>
				<stop  offset="1" style="stop-color:#437761"/>
			</linearGradient>
			<polygon style="fill:url(#SVGID_00000070085826013425140020000012335070564081465475_);" points="399.134,396.639 252.495,250 
				399.134,103.361 545.773,250 			"/>
			<g>
				<path style="fill:#6EC38C;" d="M350.866,403.711L197.156,250l153.71-153.71L504.576,250L350.866,403.711z M211.298,250
					l139.568,139.568L490.434,250L350.866,110.432L211.298,250z"/>
			</g>
		</g>
		
			<linearGradient id="SVGID_00000154426941458434499420000009878924982471344540_" gradientUnits="userSpaceOnUse" x1="435.241" y1="500.4232" x2="787.0142" y2="500.4232">
			<stop  offset="0" style="stop-color:#437761"/>
			<stop  offset="1" style="stop-color:#6EC38C"/>
		</linearGradient>
		<circle style="fill:url(#SVGID_00000154426941458434499420000009878924982471344540_);" cx="611.128" cy="500.423" r="175.887"/>
		<g>
			
				<linearGradient id="SVGID_00000127007504752407131370000009905938250830725762_" gradientUnits="userSpaceOnUse" x1="619.0117" y1="331.1826" x2="694.7617" y2="331.1826">
				<stop  offset="0" style="stop-color:#6EC38C"/>
				<stop  offset="1" style="stop-color:#437761"/>
			</linearGradient>
			<path style="fill:url(#SVGID_00000127007504752407131370000009905938250830725762_);" d="M656.887,369.058
				c-20.885,0-37.875-16.99-37.875-37.875c0-20.885,16.99-37.875,37.875-37.875c20.885,0,37.875,16.99,37.875,37.875
				C694.762,352.067,677.771,369.058,656.887,369.058z M656.887,303.308c-15.37,0-27.875,12.505-27.875,27.875
				c0,15.37,12.505,27.875,27.875,27.875c15.37,0,27.875-12.505,27.875-27.875C684.762,315.813,672.257,303.308,656.887,303.308z"/>
		</g>
		<g>
			
				<linearGradient id="SVGID_00000106827980469509328870000014726371334207652996_" gradientUnits="userSpaceOnUse" x1="-37.875" y1="116.3999" x2="37.875" y2="116.3999">
				<stop  offset="0" style="stop-color:#6EC38C"/>
				<stop  offset="1" style="stop-color:#437761"/>
			</linearGradient>
			<path style="fill:url(#SVGID_00000106827980469509328870000014726371334207652996_);" d="M0,154.275
				c-20.884,0-37.875-16.991-37.875-37.875S-20.884,78.525,0,78.525S37.875,95.516,37.875,116.4S20.884,154.275,0,154.275z
				 M0,88.525c-15.37,0-27.875,12.505-27.875,27.875S-15.37,144.275,0,144.275S27.875,131.77,27.875,116.4S15.37,88.525,0,88.525z"
				/>
		</g>
		
			<linearGradient id="SVGID_00000013188507362853791530000007279583307154327458_" gradientUnits="userSpaceOnUse" x1="57.8386" y1="156.3918" x2="90.7137" y2="156.3918">
			<stop  offset="0" style="stop-color:#6EC38C"/>
			<stop  offset="1" style="stop-color:#437761"/>
		</linearGradient>
		<circle style="fill:url(#SVGID_00000013188507362853791530000007279583307154327458_);" cx="74.276" cy="156.392" r="16.438"/>
		
			<linearGradient id="SVGID_00000063625221953034993300000001100197049898735745_" gradientUnits="userSpaceOnUse" x1="367.1339" y1="38.2294" x2="400.0091" y2="38.2294">
			<stop  offset="0" style="stop-color:#6EC38C"/>
			<stop  offset="1" style="stop-color:#437761"/>
		</linearGradient>
		<circle style="fill:url(#SVGID_00000063625221953034993300000001100197049898735745_);" cx="383.572" cy="38.229" r="16.438"/>
		
			<linearGradient id="SVGID_00000096061004237169490380000010954125099489086107_" gradientUnits="userSpaceOnUse" x1="493.5624" y1="361" x2="526.4376" y2="361">
			<stop  offset="0" style="stop-color:#6EC38C"/>
			<stop  offset="1" style="stop-color:#437761"/>
		</linearGradient>
		<circle style="fill:url(#SVGID_00000096061004237169490380000010954125099489086107_);" cx="510" cy="361" r="16.438"/>
		<g>
			
				<linearGradient id="SVGID_00000034073194472197950940000009672306140465814913_" gradientUnits="userSpaceOnUse" x1="454.5045" y1="9.6865" x2="530.2545" y2="9.6865">
				<stop  offset="0" style="stop-color:#6EC38C"/>
				<stop  offset="1" style="stop-color:#437761"/>
			</linearGradient>
			<path style="fill:url(#SVGID_00000034073194472197950940000009672306140465814913_);" d="M492.379,47.562
				c-20.885,0-37.875-16.991-37.875-37.875c0-20.884,16.99-37.875,37.875-37.875c20.885,0,37.875,16.991,37.875,37.875
				C530.255,30.571,513.264,47.562,492.379,47.562z M492.379-18.188c-15.37,0-27.875,12.505-27.875,27.875
				c0,15.37,12.505,27.875,27.875,27.875c15.37,0,27.875-12.505,27.875-27.875C520.255-5.684,507.75-18.188,492.379-18.188z"/>
		</g>
		<g>
			
				<linearGradient id="SVGID_00000155104903951054685820000013844562597618695084_" gradientUnits="userSpaceOnUse" x1="535.3698" y1="490.3868" x2="706.9581" y2="490.3868">
				<stop  offset="0" style="stop-color:#6EC38C"/>
				<stop  offset="1" style="stop-color:#437761"/>
			</linearGradient>
			<path style="fill:url(#SVGID_00000155104903951054685820000013844562597618695084_);" d="M706.958,570.585l-20.349-20.349
				l-0.416-0.416l-59.445-59.445l-0.416-0.416l-59.445-59.445l-0.416-0.416l-25.506-25.506c-1.9,1.394-3.763,2.859-5.596,4.381
				l26.114,26.114l0.416,0.416l59.445,59.445l0.416,0.416l59.445,59.445l0.416,0.416l20.956,20.956
				C704.099,574.348,705.564,572.485,706.958,570.585z"/>
			
				<linearGradient id="SVGID_00000159440552078965324450000013778556629472572338_" gradientUnits="userSpaceOnUse" x1="559.6733" y1="471.0925" x2="721.2431" y2="471.0925">
				<stop  offset="0" style="stop-color:#6EC38C"/>
				<stop  offset="1" style="stop-color:#437761"/>
			</linearGradient>
			<path style="fill:url(#SVGID_00000159440552078965324450000013778556629472572338_);" d="M706.563,530.283l-0.416-0.416
				l-59.445-59.445l-0.416-0.416l-59.445-59.445l-0.416-0.416l-19.838-19.838c-2.331,0.942-4.635,1.967-6.915,3.062l21.764,21.764
				l0.416,0.416l59.445,59.445l0.416,0.416l59.445,59.445l0.416,0.416l16.606,16.606c1.095-2.279,2.121-4.584,3.062-6.915
				L706.563,530.283z"/>
			
				<linearGradient id="SVGID_00000083800852396701090430000017964082822806312608_" gradientUnits="userSpaceOnUse" x1="589.8078" y1="452.0435" x2="729.2066" y2="452.0435">
				<stop  offset="0" style="stop-color:#6EC38C"/>
				<stop  offset="1" style="stop-color:#437761"/>
			</linearGradient>
			<path style="fill:url(#SVGID_00000083800852396701090430000017964082822806312608_);" d="M726.516,510.329l-0.416-0.416
				l-59.445-59.445l-0.416-0.416l-59.445-59.445l-0.416-0.416l-7.847-7.847c-2.92,0.31-5.829,0.727-8.724,1.253l11.583,11.583
				l0.416,0.416l59.445,59.445l0.416,0.416l59.445,59.445l0.416,0.416l6.425,6.426c0.526-2.895,0.943-5.804,1.253-8.724
				L726.516,510.329z"/>
			
				<linearGradient id="SVGID_00000083052001219626924820000013963938329365048751_" gradientUnits="userSpaceOnUse" x1="546.8807" y1="480.7241" x2="714.7725" y2="480.7241">
				<stop  offset="0" style="stop-color:#6EC38C"/>
				<stop  offset="1" style="stop-color:#437761"/>
			</linearGradient>
			<path style="fill:url(#SVGID_00000083052001219626924820000013963938329365048751_);" d="M696.586,540.259l-0.416-0.416
				l-59.445-59.445l-0.416-0.416l-59.445-59.445l-0.416-0.416l-23.344-23.344c-2.105,1.18-4.179,2.435-6.224,3.753l24.58,24.58
				l0.416,0.416l59.445,59.445l0.416,0.416l59.445,59.445l0.416,0.416l19.422,19.422c1.318-2.045,2.573-4.119,3.753-6.224
				L696.586,540.259z"/>
			
				<linearGradient id="SVGID_00000085973440451525444780000012732732229482988422_" gradientUnits="userSpaceOnUse" x1="573.8945" y1="461.5203" x2="726.1664" y2="461.5203">
				<stop  offset="0" style="stop-color:#6EC38C"/>
				<stop  offset="1" style="stop-color:#437761"/>
			</linearGradient>
			<path style="fill:url(#SVGID_00000085973440451525444780000012732732229482988422_);" d="M716.54,520.306l-0.416-0.416
				l-59.445-59.445l-0.416-0.416l-59.445-59.445l-0.416-0.416l-14.784-14.784c-2.594,0.663-5.17,1.413-7.724,2.253l17.519,17.519
				l0.416,0.416l59.445,59.445l0.416,0.416l59.445,59.445l0.416,0.416l12.362,12.362c0.841-2.553,1.59-5.13,2.253-7.724
				L716.54,520.306z"/>
			
				<linearGradient id="SVGID_00000093171996417104028390000012693675323503986309_" gradientUnits="userSpaceOnUse" x1="493.1893" y1="548.117" x2="633.6782" y2="548.117">
				<stop  offset="0" style="stop-color:#6EC38C"/>
				<stop  offset="1" style="stop-color:#437761"/>
			</linearGradient>
			<path style="fill:url(#SVGID_00000093171996417104028390000012693675323503986309_);" d="M633.678,617.027l-6.93-6.93
				l-0.416-0.416l-59.445-59.445l-0.416-0.416l-59.445-59.445l-0.416-0.416l-12.087-12.087c-0.552,2.866-0.995,5.749-1.334,8.642
				l8.433,8.433l0.416,0.416l59.445,59.445l0.416,0.416l59.445,59.445l0.416,0.416l3.276,3.276
				C627.929,618.022,630.812,617.579,633.678,617.027z"/>
			
				<linearGradient id="SVGID_00000090259278216427169850000009808836499220014505_" gradientUnits="userSpaceOnUse" x1="501.4384" y1="529.0492" x2="663.5646" y2="529.0492">
				<stop  offset="0" style="stop-color:#6EC38C"/>
				<stop  offset="1" style="stop-color:#437761"/>
			</linearGradient>
			<path style="fill:url(#SVGID_00000090259278216427169850000009808836499220014505_);" d="M646.702,590.143l-0.416-0.416
				l-59.445-59.445l-0.416-0.416l-59.445-59.445l-0.416-0.416l-22.02-22.02c-1.114,2.263-2.146,4.555-3.106,6.871l20.138,20.138
				l0.416,0.416l59.445,59.445l0.416,0.416l59.445,59.445l0.416,0.416l14.98,14.98c2.315-0.961,4.608-1.993,6.871-3.106
				L646.702,590.143z"/>
			
				<linearGradient id="SVGID_00000165212892945593044200000006670003018777859769_" gradientUnits="userSpaceOnUse" x1="515.9207" y1="509.7521" x2="687.6765" y2="509.7521">
				<stop  offset="0" style="stop-color:#6EC38C"/>
				<stop  offset="1" style="stop-color:#437761"/>
			</linearGradient>
			<path style="fill:url(#SVGID_00000165212892945593044200000006670003018777859769_);" d="M666.656,570.19l-0.416-0.416
				l-59.445-59.445l-0.416-0.416l-59.445-59.445l-0.416-0.416l-26.178-26.178c-1.537,1.818-3.01,3.672-4.419,5.557l25.609,25.609
				l0.416,0.416l59.445,59.445l0.416,0.416l59.445,59.445l0.416,0.416l20.452,20.452c1.886-1.41,3.739-2.883,5.557-4.419
				L666.656,570.19z"/>
			
				<linearGradient id="SVGID_00000129889341011382248150000009082428021713902773_" gradientUnits="userSpaceOnUse" x1="496.3853" y1="538.6337" x2="649.4487" y2="538.6337">
				<stop  offset="0" style="stop-color:#6EC38C"/>
				<stop  offset="1" style="stop-color:#437761"/>
			</linearGradient>
			<path style="fill:url(#SVGID_00000129889341011382248150000009082428021713902773_);" d="M636.725,600.12l-0.416-0.416
				l-59.445-59.445l-0.416-0.416l-59.445-59.445l-0.416-0.416l-17.881-17.881c-0.86,2.531-1.637,5.083-2.322,7.655l15.214,15.214
				l0.416,0.416l59.445,59.445l0.416,0.416l59.445,59.445l0.416,0.416l10.057,10.057c2.572-0.685,5.125-1.461,7.655-2.322
				L636.725,600.12z"/>
			
				<linearGradient id="SVGID_00000157270939070984742780000003712412095909036193_" gradientUnits="userSpaceOnUse" x1="508.0124" y1="519.4148" x2="676.2594" y2="519.4148">
				<stop  offset="0" style="stop-color:#6EC38C"/>
				<stop  offset="1" style="stop-color:#437761"/>
			</linearGradient>
			<path style="fill:url(#SVGID_00000157270939070984742780000003712412095909036193_);" d="M656.679,580.167l-0.416-0.416
				l-59.445-59.445l-0.416-0.416l-59.445-59.445l-0.416-0.416l-24.738-24.738c-1.334,2.03-2.594,4.095-3.791,6.186l23.541,23.541
				l0.416,0.416l59.445,59.445l0.416,0.416l59.445,59.445l0.416,0.416l18.383,18.383c2.091-1.197,4.155-2.457,6.186-3.791
				L656.679,580.167z"/>
			
				<linearGradient id="SVGID_00000151511300257993921710000007312062871445263262_" gradientUnits="userSpaceOnUse" x1="525.0521" y1="500.0732" x2="697.9029" y2="500.0732">
				<stop  offset="0" style="stop-color:#6EC38C"/>
				<stop  offset="1" style="stop-color:#437761"/>
			</linearGradient>
			<path style="fill:url(#SVGID_00000151511300257993921710000007312062871445263262_);" d="M676.217,559.797l-59.445-59.445
				l-0.416-0.416l-59.445-59.445l-0.416-0.416l-26.428-26.428c-0.981,0.918-1.955,1.847-2.912,2.804
				c-0.712,0.712-1.413,1.432-2.104,2.157l26.455,26.454l0.416,0.416l59.445,59.445l0.416,0.416l59.445,59.445l0.416,0.416
				l21.297,21.297c0.726-0.69,1.445-1.391,2.157-2.104c0.957-0.957,1.887-1.931,2.804-2.912l-21.271-21.271L676.217,559.797z"/>
			
				<linearGradient id="SVGID_00000057126500010009399690000003015284313510125192_" gradientUnits="userSpaceOnUse" x1="629.1658" y1="432.7163" x2="728.5029" y2="432.7163">
				<stop  offset="0" style="stop-color:#6EC38C"/>
				<stop  offset="1" style="stop-color:#437761"/>
			</linearGradient>
			<path style="fill:url(#SVGID_00000057126500010009399690000003015284313510125192_);" d="M725.875,469.78l-39.266-39.266
				l-0.416-0.416l-44.423-44.423c-4.16-1.107-8.368-1.98-12.605-2.628l52.039,52.039l0.416,0.416l46.882,46.882
				C727.855,478.148,726.982,473.94,725.875,469.78z"/>
			
				<linearGradient id="SVGID_00000172434210036257281230000000194049164449776557_" gradientUnits="userSpaceOnUse" x1="500.534" y1="577.3801" x2="567.8072" y2="577.3801">
				<stop  offset="0" style="stop-color:#6EC38C"/>
				<stop  offset="1" style="stop-color:#437761"/>
			</linearGradient>
			<path style="fill:url(#SVGID_00000172434210036257281230000000194049164449776557_);" d="M536.957,580.167l-0.416-0.416
				l-36.007-36.007c2.732,6.984,6.148,13.762,10.253,20.229l20.766,20.766l0.416,0.416l15.609,15.609
				c6.468,4.104,13.245,7.521,20.229,10.253L536.957,580.167z"/>
			
				<linearGradient id="SVGID_00000093879841370771234490000012513269915420601998_" gradientUnits="userSpaceOnUse" x1="493.5021" y1="567.4033" x2="594.7927" y2="567.4033">
				<stop  offset="0" style="stop-color:#6EC38C"/>
				<stop  offset="1" style="stop-color:#437761"/>
			</linearGradient>
			<path style="fill:url(#SVGID_00000093879841370771234490000012513269915420601998_);" d="M546.518,569.774l-53.016-53.016
				c0.573,4.148,1.363,8.271,2.374,12.351l45.653,45.653l0.416,0.416l40.496,40.496c4.08,1.011,8.203,1.802,12.351,2.374
				l-47.859-47.859L546.518,569.774z"/>
			
				<linearGradient id="SVGID_00000143606531505061702700000004868065050287478455_" gradientUnits="userSpaceOnUse" x1="656.8878" y1="422.7396" x2="720.7345" y2="422.7396">
				<stop  offset="0" style="stop-color:#6EC38C"/>
				<stop  offset="1" style="stop-color:#437761"/>
			</linearGradient>
			<path style="fill:url(#SVGID_00000143606531505061702700000004868065050287478455_);" d="M691.598,425.526l29.137,29.137
				c-3.207-7.69-7.251-15.112-12.146-22.123l-12.002-12.003l-0.416-0.416l-17.16-17.16c-7.01-4.895-14.433-8.939-22.123-12.146
				l34.294,34.294L691.598,425.526z"/>
			
				<linearGradient id="SVGID_00000165202494200371867120000016791341238665494461_" gradientUnits="userSpaceOnUse" x1="607.8825" y1="442.6717" x2="729.8757" y2="442.6717">
				<stop  offset="0" style="stop-color:#6EC38C"/>
				<stop  offset="1" style="stop-color:#437761"/>
			</linearGradient>
			<path style="fill:url(#SVGID_00000165202494200371867120000016791341238665494461_);" d="M611.367,385.203l0.416,0.416
				l59.445,59.445l0.416,0.416l58.189,58.189c0.092-3.379,0.036-6.761-0.159-10.136l-53.041-53.041l-0.416-0.416l-58.198-58.198
				c-3.375-0.195-6.757-0.251-10.136-0.159L611.367,385.203z"/>
			
				<linearGradient id="SVGID_00000136402066921436108320000000719703565198996927_" gradientUnits="userSpaceOnUse" x1="492.3794" y1="557.4727" x2="615.7765" y2="557.4727">
				<stop  offset="0" style="stop-color:#6EC38C"/>
				<stop  offset="1" style="stop-color:#437761"/>
			</linearGradient>
			<path style="fill:url(#SVGID_00000136402066921436108320000000719703565198996927_);" d="M492.497,505.776l59.009,59.009
				l0.416,0.416l53.852,53.852c3.332,0.149,6.669,0.155,10.002,0.025l-58.866-58.866l-0.416-0.416l-59.445-59.445l-0.416-0.416
				l-4.162-4.162C492.342,499.107,492.348,502.444,492.497,505.776z"/>
		</g>
		<g>
			
				<linearGradient id="SVGID_00000158007082962759090020000011644765821779189420_" gradientUnits="userSpaceOnUse" x1="141.2573" y1="-23.7897" x2="252.1747" y2="-23.7897">
				<stop  offset="0" style="stop-color:#437761"/>
				<stop  offset="1" style="stop-color:#6EC38C"/>
			</linearGradient>
			<path style="fill:url(#SVGID_00000158007082962759090020000011644765821779189420_);" d="M252.175,28.052l-13.154-13.154
				l-0.269-0.269l-38.426-38.426l-0.269-0.269l-38.426-38.426l-0.269-0.269l-16.487-16.488c-1.228,0.901-2.433,1.848-3.617,2.832
				l16.88,16.88l0.269,0.269l38.426,38.426l0.269,0.269l38.426,38.426l0.269,0.269l13.546,13.547
				C250.326,30.484,251.273,29.28,252.175,28.052z"/>
			
				<linearGradient id="SVGID_00000036935761377443566410000006388835453590583695_" gradientUnits="userSpaceOnUse" x1="156.9675" y1="-36.2618" x2="261.4088" y2="-36.2618">
				<stop  offset="0" style="stop-color:#437761"/>
				<stop  offset="1" style="stop-color:#6EC38C"/>
			</linearGradient>
			<path style="fill:url(#SVGID_00000036935761377443566410000006388835453590583695_);" d="M251.919,2l-0.269-0.269l-38.426-38.426
				l-0.269-0.269l-38.426-38.426l-0.269-0.269l-12.823-12.823c-1.507,0.609-2.996,1.271-4.47,1.979l14.068,14.068l0.269,0.269
				l38.426,38.426L210-33.471l38.426,38.426l0.269,0.269l10.735,10.735c0.708-1.473,1.371-2.963,1.979-4.47L251.919,2z"/>
			
				<linearGradient id="SVGID_00000156550373440127922030000012227946740432351413_" gradientUnits="userSpaceOnUse" x1="176.4469" y1="-48.5754" x2="266.5565" y2="-48.5754">
				<stop  offset="0" style="stop-color:#437761"/>
				<stop  offset="1" style="stop-color:#6EC38C"/>
			</linearGradient>
			<path style="fill:url(#SVGID_00000156550373440127922030000012227946740432351413_);" d="M264.818-10.899l-0.269-0.269
				l-38.426-38.426l-0.269-0.269l-38.426-38.426l-0.269-0.269l-5.073-5.073c-1.887,0.2-3.768,0.47-5.639,0.81l7.487,7.487
				l0.269,0.269l38.426,38.426l0.269,0.269l38.426,38.426l0.269,0.269l4.154,4.154c0.34-1.871,0.61-3.752,0.81-5.639L264.818-10.899
				z"/>
			
				<linearGradient id="SVGID_00000170986380664698095020000013591821843656769469_" gradientUnits="userSpaceOnUse" x1="148.6981" y1="-30.0359" x2="257.2261" y2="-30.0359">
				<stop  offset="0" style="stop-color:#437761"/>
				<stop  offset="1" style="stop-color:#6EC38C"/>
			</linearGradient>
			<path style="fill:url(#SVGID_00000170986380664698095020000013591821843656769469_);" d="M245.47,8.449l-0.269-0.269
				l-38.426-38.426l-0.269-0.269L168.08-68.941l-0.269-0.269l-15.09-15.09c-1.361,0.763-2.701,1.574-4.023,2.426l15.889,15.889
				l0.269,0.269l38.426,38.426l0.269,0.269l38.426,38.426l0.269,0.269L254.8,24.228c0.852-1.322,1.663-2.663,2.426-4.023
				L245.47,8.449z"/>
			
				<linearGradient id="SVGID_00000159431258179914416320000014877106133558992813_" gradientUnits="userSpaceOnUse" x1="166.1603" y1="-42.4495" x2="264.5913" y2="-42.4495">
				<stop  offset="0" style="stop-color:#437761"/>
				<stop  offset="1" style="stop-color:#6EC38C"/>
			</linearGradient>
			<path style="fill:url(#SVGID_00000159431258179914416320000014877106133558992813_);" d="M258.368-4.45L258.1-4.718
				l-38.426-38.426l-0.269-0.269L180.978-81.84l-0.269-0.269l-9.557-9.557c-1.677,0.428-3.342,0.913-4.993,1.456l11.325,11.325
				l0.269,0.269l38.426,38.426l0.269,0.269l38.426,38.426l0.269,0.269l7.991,7.991c0.543-1.65,1.028-3.316,1.456-4.993L258.368-4.45
				z"/>
			
				<linearGradient id="SVGID_00000067211791237274489070000016886570426145908118_" gradientUnits="userSpaceOnUse" x1="113.9911" y1="13.528" x2="204.8055" y2="13.528">
				<stop  offset="0" style="stop-color:#437761"/>
				<stop  offset="1" style="stop-color:#6EC38C"/>
			</linearGradient>
			<path style="fill:url(#SVGID_00000067211791237274489070000016886570426145908118_);" d="M204.805,58.072l-4.48-4.48
				l-0.269-0.269l-38.426-38.426l-0.269-0.269l-38.426-38.426l-0.269-0.269l-7.813-7.813c-0.357,1.853-0.643,3.716-0.863,5.587
				l5.451,5.451l0.269,0.269l38.426,38.426l0.269,0.269l38.426,38.426l0.269,0.269l2.118,2.118
				C201.089,58.716,202.953,58.429,204.805,58.072z"/>
			
				<linearGradient id="SVGID_00000126300138569512971370000012385954586013750190_" gradientUnits="userSpaceOnUse" x1="119.3235" y1="1.2023" x2="224.1245" y2="1.2023">
				<stop  offset="0" style="stop-color:#437761"/>
				<stop  offset="1" style="stop-color:#6EC38C"/>
			</linearGradient>
			<path style="fill:url(#SVGID_00000126300138569512971370000012385954586013750190_);" d="M213.224,40.695l-0.269-0.269L174.529,2
				l-0.269-0.269l-38.426-38.426l-0.269-0.269l-14.234-14.234c-0.72,1.463-1.387,2.945-2.008,4.441l13.017,13.017l0.269,0.269
				l38.426,38.426l0.269,0.269l38.426,38.426L210,43.919l9.684,9.684c1.497-0.621,2.979-1.288,4.441-2.008L213.224,40.695z"/>
			
				<linearGradient id="SVGID_00000062910078230907757270000005660133641429202835_" gradientUnits="userSpaceOnUse" x1="128.6851" y1="-11.2717" x2="239.7108" y2="-11.2717">
				<stop  offset="0" style="stop-color:#437761"/>
				<stop  offset="1" style="stop-color:#6EC38C"/>
			</linearGradient>
			<path style="fill:url(#SVGID_00000062910078230907757270000005660133641429202835_);" d="M226.123,27.796l-0.269-0.269
				l-38.426-38.426l-0.269-0.269l-38.426-38.426l-0.269-0.269l-16.922-16.922c-0.993,1.175-1.945,2.373-2.857,3.592l16.554,16.554
				l0.269,0.269l38.426,38.426l0.269,0.269l38.426,38.426l0.269,0.269l13.22,13.22c1.219-0.911,2.417-1.863,3.592-2.857
				L226.123,27.796z"/>
			
				<linearGradient id="SVGID_00000070097905528127584220000016450555725236928156_" gradientUnits="userSpaceOnUse" x1="116.0571" y1="7.3979" x2="214.9997" y2="7.3979">
				<stop  offset="0" style="stop-color:#437761"/>
				<stop  offset="1" style="stop-color:#6EC38C"/>
			</linearGradient>
			<path style="fill:url(#SVGID_00000070097905528127584220000016450555725236928156_);" d="M206.775,47.144l-0.269-0.269
				L168.08,8.449l-0.269-0.269l-38.426-38.426l-0.269-0.269l-11.559-11.559c-0.556,1.636-1.058,3.286-1.501,4.948l9.835,9.835
				l0.269,0.269l38.426,38.426l0.269,0.269L203.282,50.1l0.269,0.269l6.501,6.501c1.663-0.443,3.313-0.944,4.948-1.501
				L206.775,47.144z"/>
			
				<linearGradient id="SVGID_00000067959139407519726510000016186182945568460427_" gradientUnits="userSpaceOnUse" x1="123.573" y1="-5.0255" x2="232.3306" y2="-5.0255">
				<stop  offset="0" style="stop-color:#437761"/>
				<stop  offset="1" style="stop-color:#6EC38C"/>
			</linearGradient>
			<path style="fill:url(#SVGID_00000067959139407519726510000016186182945568460427_);" d="M219.673,34.245l-0.269-0.269
				L180.978-4.45l-0.269-0.269l-38.426-38.426l-0.269-0.269l-15.991-15.991c-0.863,1.312-1.677,2.647-2.451,3.999l15.217,15.217
				l0.269,0.269l38.426,38.426l0.269,0.269l38.426,38.426l0.269,0.269l11.883,11.883c1.352-0.774,2.686-1.588,3.999-2.451
				L219.673,34.245z"/>
			
				<linearGradient id="SVGID_00000099642243957497741050000004473430762086426522_" gradientUnits="userSpaceOnUse" x1="134.5878" y1="-17.5283" x2="246.3213" y2="-17.5283">
				<stop  offset="0" style="stop-color:#437761"/>
				<stop  offset="1" style="stop-color:#6EC38C"/>
			</linearGradient>
			<path style="fill:url(#SVGID_00000099642243957497741050000004473430762086426522_);" d="M232.303,21.078l-38.426-38.426
				l-0.269-0.269l-38.426-38.426l-0.269-0.269L137.83-73.395c-0.634,0.593-1.263,1.194-1.882,1.813
				c-0.46,0.46-0.913,0.925-1.36,1.395l17.101,17.101l0.269,0.269l38.426,38.426l0.269,0.269l38.426,38.426l0.269,0.269
				l13.767,13.767c0.469-0.446,0.934-0.899,1.395-1.36c0.619-0.618,1.22-1.248,1.813-1.882l-13.75-13.75L232.303,21.078z"/>
			
				<linearGradient id="SVGID_00000085952153572763019410000012239319131771007627_" gradientUnits="userSpaceOnUse" x1="201.8885" y1="-61.0689" x2="266.1017" y2="-61.0689">
				<stop  offset="0" style="stop-color:#437761"/>
				<stop  offset="1" style="stop-color:#6EC38C"/>
			</linearGradient>
			<path style="fill:url(#SVGID_00000085952153572763019410000012239319131771007627_);" d="M264.403-37.11l-25.382-25.382
				l-0.269-0.269l-28.716-28.716c-2.689-0.715-5.409-1.28-8.148-1.699l33.639,33.639l0.269,0.269l30.305,30.305
				C265.683-31.701,265.118-34.421,264.403-37.11z"/>
			
				<linearGradient id="SVGID_00000178913653834643122570000012592880754744373937_" gradientUnits="userSpaceOnUse" x1="118.7389" y1="32.4441" x2="162.2253" y2="32.4441">
				<stop  offset="0" style="stop-color:#437761"/>
				<stop  offset="1" style="stop-color:#6EC38C"/>
			</linearGradient>
			<path style="fill:url(#SVGID_00000178913653834643122570000012592880754744373937_);" d="M142.283,34.245l-0.269-0.269
				l-23.276-23.276c1.766,4.515,3.974,8.896,6.627,13.077l13.424,13.424l0.269,0.269l10.09,10.09
				c4.181,2.653,8.562,4.862,13.077,6.627L142.283,34.245z"/>
			
				<linearGradient id="SVGID_00000024687817984953863030000013716047985197396119_" gradientUnits="userSpaceOnUse" x1="114.1933" y1="25.995" x2="179.6692" y2="25.995">
				<stop  offset="0" style="stop-color:#437761"/>
				<stop  offset="1" style="stop-color:#6EC38C"/>
			</linearGradient>
			<path style="fill:url(#SVGID_00000024687817984953863030000013716047985197396119_);" d="M148.464,27.528l-34.27-34.27
				c0.37,2.681,0.881,5.347,1.535,7.984l29.511,29.511l0.269,0.269l26.177,26.177c2.637,0.654,5.303,1.165,7.984,1.535
				l-30.937-30.937L148.464,27.528z"/>
			
				<linearGradient id="SVGID_00000016051475604596626630000000160949286165700532_" gradientUnits="userSpaceOnUse" x1="219.8085" y1="-67.518" x2="261.08" y2="-67.518">
				<stop  offset="0" style="stop-color:#437761"/>
				<stop  offset="1" style="stop-color:#6EC38C"/>
			</linearGradient>
			<path style="fill:url(#SVGID_00000016051475604596626630000000160949286165700532_);" d="M242.245-65.717l18.834,18.835
				c-2.073-4.971-4.687-9.769-7.851-14.301l-7.759-7.759l-0.269-0.269l-11.092-11.092c-4.532-3.164-9.33-5.778-14.301-7.851
				l22.168,22.168L242.245-65.717z"/>
			
				<linearGradient id="SVGID_00000167396225132112968530000010478990719271508352_" gradientUnits="userSpaceOnUse" x1="188.1307" y1="-54.6336" x2="266.989" y2="-54.6336">
				<stop  offset="0" style="stop-color:#437761"/>
				<stop  offset="1" style="stop-color:#6EC38C"/>
			</linearGradient>
			<path style="fill:url(#SVGID_00000167396225132112968530000010478990719271508352_);" d="M190.383-91.782l0.269,0.269
				l38.426,38.426l0.269,0.269l37.614,37.614c0.059-2.184,0.023-4.37-0.103-6.552l-34.287-34.287l-0.269-0.269l-37.62-37.62
				c-2.182-0.126-4.368-0.162-6.552-0.103L190.383-91.782z"/>
			
				<linearGradient id="SVGID_00000155115275035718490630000002460862117264280762_" gradientUnits="userSpaceOnUse" x1="113.4677" y1="19.5757" x2="193.2335" y2="19.5757">
				<stop  offset="0" style="stop-color:#437761"/>
				<stop  offset="1" style="stop-color:#6EC38C"/>
			</linearGradient>
			<path style="fill:url(#SVGID_00000155115275035718490630000002460862117264280762_);" d="M113.544-13.842l38.145,38.145
				l0.269,0.269l34.811,34.811c2.154,0.097,4.311,0.1,6.465,0.016l-38.052-38.052l-0.269-0.269l-38.426-38.426l-0.269-0.269
				l-2.69-2.691C113.443-18.153,113.447-15.996,113.544-13.842z"/>
		</g>
		<g>
			<polygon style="fill:#6EC38C;" points="156.567,310.033 120.927,319.582 147.018,345.672 			"/>
			<polygon style="fill:#6EC38C;" points="183.393,283.207 147.753,292.756 173.843,318.846 			"/>
		</g>
		<g>
			<polygon style="fill:#6EC38C;" points="606.206,219.993 570.566,229.543 596.656,255.633 			"/>
			<polygon style="fill:#6EC38C;" points="633.031,193.167 597.392,202.717 623.482,228.807 			"/>
		</g>
		<g>
			<path style="fill:#6EC38C;" d="M51.488,395.509c0,3.569-2.893,6.462-6.462,6.462c-3.569,0-6.462-2.893-6.462-6.462
				c0-3.569,2.893-6.461,6.462-6.461C48.595,389.047,51.488,391.94,51.488,395.509z"/>
			<path style="fill:#6EC38C;" d="M87.199,395.509c0,3.569-2.893,6.462-6.462,6.462c-3.569,0-6.462-2.893-6.462-6.462
				c0-3.569,2.893-6.461,6.462-6.461C84.306,389.047,87.199,391.94,87.199,395.509z"/>
			<path style="fill:#6EC38C;" d="M122.911,395.509c0,3.569-2.893,6.462-6.462,6.462c-3.569,0-6.462-2.893-6.462-6.462
				c0-3.569,2.893-6.461,6.462-6.461C120.018,389.047,122.911,391.94,122.911,395.509z"/>
			<path style="fill:#6EC38C;" d="M158.622,395.509c0,3.569-2.893,6.462-6.462,6.462c-3.569,0-6.462-2.893-6.462-6.462
				c0-3.569,2.893-6.461,6.462-6.461C155.729,389.047,158.622,391.94,158.622,395.509z"/>
			<path style="fill:#6EC38C;" d="M194.333,395.509c0,3.569-2.893,6.462-6.462,6.462c-3.569,0-6.462-2.893-6.462-6.462
				c0-3.569,2.893-6.461,6.462-6.461C191.44,389.047,194.333,391.94,194.333,395.509z"/>
			<path style="fill:#6EC38C;" d="M230.044,395.509c0,3.569-2.893,6.462-6.462,6.462c-3.569,0-6.462-2.893-6.462-6.462
				c0-3.569,2.893-6.461,6.462-6.461C227.152,389.047,230.044,391.94,230.044,395.509z"/>
			<path style="fill:#6EC38C;" d="M51.488,429.028c0,3.569-2.893,6.462-6.462,6.462c-3.569,0-6.462-2.893-6.462-6.462
				s2.893-6.462,6.462-6.462C48.595,422.566,51.488,425.46,51.488,429.028z"/>
			<path style="fill:#6EC38C;" d="M87.199,429.028c0,3.569-2.893,6.462-6.462,6.462c-3.569,0-6.462-2.893-6.462-6.462
				s2.893-6.462,6.462-6.462C84.306,422.566,87.199,425.46,87.199,429.028z"/>
			<circle style="fill:#6EC38C;" cx="116.449" cy="429.028" r="6.462"/>
			<path style="fill:#6EC38C;" d="M158.622,429.028c0,3.569-2.893,6.462-6.462,6.462c-3.569,0-6.462-2.893-6.462-6.462
				s2.893-6.462,6.462-6.462C155.729,422.566,158.622,425.46,158.622,429.028z"/>
			<path style="fill:#6EC38C;" d="M194.333,429.028c0,3.569-2.893,6.462-6.462,6.462c-3.569,0-6.462-2.893-6.462-6.462
				s2.893-6.462,6.462-6.462C191.44,422.566,194.333,425.46,194.333,429.028z"/>
			<path style="fill:#6EC38C;" d="M230.044,429.028c0,3.569-2.893,6.462-6.462,6.462c-3.569,0-6.462-2.893-6.462-6.462
				s2.893-6.462,6.462-6.462C227.152,422.566,230.044,425.46,230.044,429.028z"/>
			<path style="fill:#6EC38C;" d="M51.488,462.547c0,3.569-2.893,6.462-6.462,6.462c-3.569,0-6.462-2.893-6.462-6.462
				c0-3.569,2.893-6.462,6.462-6.462C48.595,456.086,51.488,458.979,51.488,462.547z"/>
			<path style="fill:#6EC38C;" d="M87.199,462.547c0,3.569-2.893,6.462-6.462,6.462c-3.569,0-6.462-2.893-6.462-6.462
				c0-3.569,2.893-6.462,6.462-6.462C84.306,456.086,87.199,458.979,87.199,462.547z"/>
			<circle style="fill:#6EC38C;" cx="116.449" cy="462.547" r="6.462"/>
			<path style="fill:#6EC38C;" d="M158.622,462.547c0,3.569-2.893,6.462-6.462,6.462c-3.569,0-6.462-2.893-6.462-6.462
				c0-3.569,2.893-6.462,6.462-6.462C155.729,456.086,158.622,458.979,158.622,462.547z"/>
			<path style="fill:#6EC38C;" d="M194.333,462.547c0,3.569-2.893,6.462-6.462,6.462c-3.569,0-6.462-2.893-6.462-6.462
				c0-3.569,2.893-6.462,6.462-6.462C191.44,456.086,194.333,458.979,194.333,462.547z"/>
			<path style="fill:#6EC38C;" d="M230.044,462.547c0,3.569-2.893,6.462-6.462,6.462c-3.569,0-6.462-2.893-6.462-6.462
				c0-3.569,2.893-6.462,6.462-6.462C227.152,456.086,230.044,458.979,230.044,462.547z"/>
		</g>
		<g>
			<path style="fill:#6EC38C;" d="M693.052,133.872c0,3.569-2.893,6.462-6.461,6.462c-3.569,0-6.462-2.893-6.462-6.462
				c0-3.569,2.893-6.462,6.462-6.462C690.159,127.411,693.052,130.304,693.052,133.872z"/>
			<path style="fill:#6EC38C;" d="M728.764,133.872c0,3.569-2.893,6.462-6.461,6.462c-3.569,0-6.462-2.893-6.462-6.462
				c0-3.569,2.893-6.462,6.462-6.462C725.871,127.411,728.764,130.304,728.764,133.872z"/>
			<circle style="fill:#6EC38C;" cx="758.013" cy="133.872" r="6.462"/>
			<path style="fill:#6EC38C;" d="M800.186,133.872c0,3.569-2.893,6.462-6.461,6.462c-3.569,0-6.462-2.893-6.462-6.462
				c0-3.569,2.893-6.462,6.462-6.462C797.293,127.411,800.186,130.304,800.186,133.872z"/>
			<path style="fill:#6EC38C;" d="M835.898,133.872c0,3.569-2.893,6.462-6.461,6.462c-3.569,0-6.462-2.893-6.462-6.462
				c0-3.569,2.893-6.462,6.462-6.462C833.005,127.411,835.898,130.304,835.898,133.872z"/>
			<path style="fill:#6EC38C;" d="M871.609,133.872c0,3.569-2.893,6.462-6.461,6.462c-3.569,0-6.462-2.893-6.462-6.462
				c0-3.569,2.893-6.462,6.462-6.462C868.716,127.411,871.609,130.304,871.609,133.872z"/>
			<path style="fill:#6EC38C;" d="M693.052,167.392c0,3.569-2.893,6.462-6.461,6.462c-3.569,0-6.462-2.893-6.462-6.462
				c0-3.569,2.893-6.462,6.462-6.462C690.159,160.93,693.052,163.823,693.052,167.392z"/>
			<path style="fill:#6EC38C;" d="M728.764,167.392c0,3.569-2.893,6.462-6.461,6.462c-3.569,0-6.462-2.893-6.462-6.462
				c0-3.569,2.893-6.462,6.462-6.462C725.871,160.93,728.764,163.823,728.764,167.392z"/>
			<path style="fill:#6EC38C;" d="M764.475,167.392c0,3.569-2.893,6.462-6.461,6.462c-3.569,0-6.462-2.893-6.462-6.462
				c0-3.569,2.893-6.462,6.462-6.462C761.582,160.93,764.475,163.823,764.475,167.392z"/>
			<path style="fill:#6EC38C;" d="M800.186,167.392c0,3.569-2.893,6.462-6.461,6.462c-3.569,0-6.462-2.893-6.462-6.462
				c0-3.569,2.893-6.462,6.462-6.462C797.293,160.93,800.186,163.823,800.186,167.392z"/>
			<path style="fill:#6EC38C;" d="M835.898,167.392c0,3.569-2.893,6.462-6.461,6.462c-3.569,0-6.462-2.893-6.462-6.462
				c0-3.569,2.893-6.462,6.462-6.462C833.005,160.93,835.898,163.823,835.898,167.392z"/>
			<path style="fill:#6EC38C;" d="M871.609,167.392c0,3.569-2.893,6.462-6.461,6.462c-3.569,0-6.462-2.893-6.462-6.462
				c0-3.569,2.893-6.462,6.462-6.462C868.716,160.93,871.609,163.823,871.609,167.392z"/>
			<path style="fill:#6EC38C;" d="M693.052,200.911c0,3.569-2.893,6.462-6.461,6.462c-3.569,0-6.462-2.893-6.462-6.462
				s2.893-6.462,6.462-6.462C690.159,194.449,693.052,197.342,693.052,200.911z"/>
			<path style="fill:#6EC38C;" d="M728.764,200.911c0,3.569-2.893,6.462-6.461,6.462c-3.569,0-6.462-2.893-6.462-6.462
				s2.893-6.462,6.462-6.462C725.871,194.449,728.764,197.342,728.764,200.911z"/>
			<circle style="fill:#6EC38C;" cx="758.013" cy="200.911" r="6.462"/>
			<path style="fill:#6EC38C;" d="M800.186,200.911c0,3.569-2.893,6.462-6.461,6.462c-3.569,0-6.462-2.893-6.462-6.462
				s2.893-6.462,6.462-6.462C797.293,194.449,800.186,197.342,800.186,200.911z"/>
			<path style="fill:#6EC38C;" d="M835.898,200.911c0,3.569-2.893,6.462-6.461,6.462c-3.569,0-6.462-2.893-6.462-6.462
				s2.893-6.462,6.462-6.462C833.005,194.449,835.898,197.342,835.898,200.911z"/>
			<path style="fill:#6EC38C;" d="M871.609,200.911c0,3.569-2.893,6.462-6.461,6.462c-3.569,0-6.462-2.893-6.462-6.462
				s2.893-6.462,6.462-6.462C868.716,194.449,871.609,197.342,871.609,200.911z"/>
		</g>
		<path style="fill:#6EC38C;" d="M111.628,224.287L-49.696,385.612c-7.023,7.023-18.515,7.023-25.538,0l0,0
			c-7.023-7.023-7.023-18.515,0-25.538L86.091,198.749c7.023-7.023,18.515-7.023,25.537,0v0
			C118.651,205.772,118.651,217.264,111.628,224.287z"/>
		<path style="fill:#6EC38C;" d="M695.23-34.364L533.905,126.961c-7.023,7.023-18.515,7.023-25.537,0h0
			c-7.023-7.023-7.023-18.515,0-25.538L669.692-59.902c7.023-7.023,18.515-7.023,25.538,0l0,0
			C702.253-52.879,702.253-41.387,695.23-34.364z"/>
		<path style="fill:#396652;" d="M709.329,24.674L709.329,24.674c-2.531-2.531-6.671-2.531-9.202,0l-58.129,58.129
			c-2.531,2.531-2.531,6.671,0,9.202l0,0c2.53,2.53,6.671,2.53,9.202,0l58.129-58.129C711.859,31.346,711.859,27.205,709.329,24.674
			z"/>
		<path style="fill:#396652;" d="M320.102,447.059L320.102,447.059c-2.531-2.531-6.671-2.531-9.202,0l-58.129,58.129
			c-2.53,2.53-2.53,6.671,0,9.202l0,0c2.531,2.531,6.671,2.531,9.202,0l58.129-58.129
			C322.633,453.73,322.633,449.589,320.102,447.059z"/>
		<path style="fill:#396652;" d="M198.094,178.048L198.094,178.048c-2.531-2.531-6.671-2.531-9.202,0l-58.129,58.129
			c-2.531,2.531-2.531,6.671,0,9.202l0,0c2.531,2.531,6.671,2.531,9.202,0l58.129-58.129
			C200.624,184.719,200.624,180.578,198.094,178.048z"/>
		<path style="fill:#6EC38C;" d="M409.251,461.692L247.926,623.017c-7.023,7.023-18.515,7.023-25.538,0v0
			c-7.023-7.023-7.023-18.515,0-25.537l161.325-161.325c7.023-7.023,18.515-7.023,25.537,0h0
			C416.274,443.178,416.274,454.67,409.251,461.692z"/>
		<g>
			
				<linearGradient id="SVGID_00000100362791596573651510000015114050224185455752_" gradientUnits="userSpaceOnUse" x1="313.0793" y1="137.3004" x2="153.8558" y2="-62.6997">
				<stop  offset="0" style="stop-color:#6EC38C"/>
				<stop  offset="1" style="stop-color:#437761"/>
			</linearGradient>
			<path style="fill:url(#SVGID_00000100362791596573651510000015114050224185455752_);" d="M190.1,134.728
				c-83.759,0-151.901-68.143-151.901-151.901S106.341-169.075,190.1-169.075s151.901,68.143,151.901,151.901
				S273.859,134.728,190.1,134.728z M190.1-134.075c-64.46,0-116.901,52.442-116.901,116.901
				c0,64.459,52.442,116.901,116.901,116.901S307.001,47.286,307.001-17.174C307.001-81.633,254.559-134.075,190.1-134.075z"/>
		</g>
	</g>
</g>
</svg>
